<svg width="15" height="14" viewBox="0 0 15 14" fill="none" xmlns="http://www.w3.org/2000/svg">
<path d="M12.2458 6.5V3.5" stroke="black" stroke-linecap="round" stroke-linejoin="round"/>
<path d="M13.7458 5H10.7458" stroke="black" stroke-linecap="round" stroke-linejoin="round"/>
<path d="M9.24579 1V3" stroke="black" stroke-linecap="round" stroke-linejoin="round"/>
<path d="M10.2458 2H8.24579" stroke="black" stroke-linecap="round" stroke-linejoin="round"/>
<path d="M12.2894 9.03755C11.3078 9.31283 10.2705 9.32185 9.28421 9.06369C8.2979 8.80553 7.39808 8.28949 6.67716 7.56857C5.95624 6.84765 5.44021 5.94783 5.18204 4.96152C4.92388 3.97522 4.93291 2.93797 5.20818 1.9563C4.24035 2.22568 3.35998 2.74394 2.65477 3.45944C1.94956 4.17495 1.44412 5.06274 1.1888 6.03438C0.933476 7.00602 0.937179 8.02759 1.19954 8.99736C1.4619 9.96712 1.97376 10.8512 2.68414 11.5616C3.39451 12.272 4.27861 12.7838 5.24838 13.0462C6.21814 13.3086 7.23971 13.3123 8.21135 13.0569C9.18299 12.8016 10.0708 12.2962 10.7863 11.591C11.5018 10.8858 12.02 10.0054 12.2894 9.03755Z" stroke="black" stroke-linecap="round" stroke-linejoin="round"/>
</svg>
